<?xml version="1.0" encoding="utf-8"?>
<!-- Generator: Adobe Illustrator 19.0.0, SVG Export Plug-In . SVG Version: 6.00 Build 0)  -->
<svg version="1.1" id="Layer_1" xmlns="http://www.w3.org/2000/svg" xmlns:xlink="http://www.w3.org/1999/xlink" x="0px" y="0px"
	 viewBox="-290.9 387.1 19.8 19.8" style="enable-background:new -290.9 387.1 19.8 19.8;" xml:space="preserve">
<style type="text/css">
	.st0{fill:none;}
	.st1{fill:#EEEEEE;stroke:#EEEEEE;stroke-miterlimit:10;}
</style>
<path class="st0" d="M-293,385h24v24h-24V385z"/>
<path class="st1" d="M-273,393h-2.8c-0.5-0.8-1.1-1.5-1.8-2l1.6-1.6l-1.4-1.4l-2.2,2.2c-0.5-0.1-0.9-0.2-1.4-0.2
	c-0.5,0-1,0.1-1.4,0.2l-2.2-2.2l-1.4,1.4l1.6,1.6c-0.7,0.5-1.4,1.2-1.8,2h-2.8v2h2.1c-0.1,0.3-0.1,0.7-0.1,1v1h-2v2h2v1
	c0,0.3,0,0.7,0.1,1h-2.1v2h2.8c1,1.8,3,3,5.2,3s4.1-1.2,5.2-3h2.8v-2h-2.1c0-0.3,0.1-0.7,0.1-1v-1h2v-2h-2v-1c0-0.3,0-0.7-0.1-1h2.1
	V393z M-279,401h-4v-2h4V401z M-279,397h-4v-2h4V397z"/>
</svg>
